<?xml version="1.0" standalone="no"?>
<!DOCTYPE svg PUBLIC "-//W3C//DTD SVG 20010904//EN"
 "http://www.w3.org/TR/2001/REC-SVG-20010904/DTD/svg10.dtd">
<svg version="1.0" xmlns="http://www.w3.org/2000/svg"
 width="1024.000000pt" height="1536.000000pt" viewBox="0 0 1024.000000 1536.000000"
 preserveAspectRatio="xMidYMid meet">

<g transform="translate(0.000000,1536.000000) scale(0.100000,-0.100000)"
fill="#000000" stroke="none">
<path d="M0 7680 l0 -7680 5120 0 5120 0 0 7680 0 7680 -5120 0 -5120 0 0
-7680z m5166 3000 c23 -12 45 -28 49 -38 5 -13 1 -12 -17 4 -41 37 -50 39
-278 44 l-225 6 214 2 c198 2 218 0 257 -18z m-523 3 c-12 -2 -36 -17 -53 -33
-16 -15 -30 -24 -30 -20 0 15 65 60 85 59 18 -2 17 -2 -2 -6z m-1400 -60 c-46
-2 -120 -2 -165 0 -46 1 -9 3 82 3 91 0 128 -2 83 -3z m-464 -7 c-2 -2 -22 -6
-44 -9 -27 -4 -35 -3 -25 3 14 9 79 15 69 6z m578 -2 c-3 -3 -12 -4 -19 -1 -8
3 -5 6 6 6 11 1 17 -2 13 -5z m1883 -244 c0 -198 -3 -230 -19 -266 -18 -39
-72 -84 -102 -84 -8 0 6 10 30 22 33 16 48 32 63 65 17 39 19 64 16 277 -2
129 0 229 4 223 4 -7 8 -113 8 -237z m-1822 220 c45 -27 40 -34 -5 -8 -47 27
-49 28 -37 28 5 0 24 -9 42 -20z m1139 -2 c-3 -8 -6 -5 -6 6 -1 11 2 17 5 13
3 -3 4 -12 1 -19z m-1893 -13 c-17 -13 -37 -38 -44 -55 -7 -17 -15 -29 -17
-26 -14 13 62 106 86 106 3 0 -8 -11 -25 -25z m846 -94 c-1 -9 -7 -2 -14 15
-8 18 -19 35 -25 38 -6 4 -11 12 -11 19 0 6 11 -4 25 -23 14 -19 25 -41 25
-49z m1047 -133 c-1 -40 -3 -8 -3 72 0 80 2 112 3 73 2 -40 2 -106 0 -145z
m536 205 c3 -5 -86 -8 -198 -8 -112 0 -201 3 -198 8 2 4 91 7 198 7 107 0 196
-3 198 -7z m4 -230 c-2 -38 -3 -7 -3 67 0 74 1 105 3 68 2 -38 2 -98 0 -135z
m-2500 -291 c-1 -81 -3 -12 -3 153 0 165 2 231 3 147 2 -84 2 -219 0 -300z
m167 417 c-17 -19 -19 -44 -24 -293 l-6 -271 -2 266 c-2 256 -1 267 19 293 11
14 23 26 26 26 3 0 -2 -9 -13 -21z m605 -23 c-2 -2 -13 8 -23 22 l-19 27 24
-22 c12 -12 21 -24 18 -27z m148 -103 c-2 -27 -3 -5 -3 47 0 52 1 74 3 48 2
-27 2 -69 0 -95z m1170 -80 c-2 -37 -3 -9 -3 62 0 72 1 102 3 68 2 -34 2 -93
0 -130z m-1318 -341 c-9 -15 -10 -15 -5 1 3 10 7 130 8 265 l3 247 2 -248 c2
-167 0 -254 -8 -265z m2638 441 c-20 -2 -52 -2 -70 0 -17 2 0 4 38 4 39 0 53
-2 32 -4z m103 -24 c68 -41 121 -111 119 -156 0 -12 -3 -10 -8 7 -23 73 -67
122 -141 154 -19 8 -28 15 -20 16 8 0 31 -10 50 -21z m-273 -17 c-21 -15 -46
-41 -57 -57 -11 -17 -20 -24 -20 -17 0 16 85 102 102 102 6 0 -5 -12 -25 -28z
m-2729 1 c-15 -2 -42 -2 -60 0 -18 2 -6 4 27 4 33 0 48 -2 33 -4z m-185 -18
c-3 -9 -8 -14 -10 -11 -3 3 -2 9 2 15 9 16 15 13 8 -4z m257 -4 c5 -11 9 -68
8 -128 l-2 -108 -3 100 c-4 121 -8 142 -31 148 -16 4 -16 5 0 6 10 0 22 -8 28
-18z m1168 -8 c-109 -2 -287 -2 -395 0 -109 1 -20 2 197 2 217 0 306 -1 198
-2z m-1441 -170 c-2 -32 -3 -8 -3 52 0 61 1 87 3 58 2 -29 2 -78 0 -110z
m2843 67 c-5 -22 -8 -27 -9 -13 -1 21 9 56 14 51 2 -2 0 -19 -5 -38z m306 6
c20 -20 34 -44 34 -58 0 -25 -23 -64 -50 -85 -30 -25 -27 -12 6 21 21 21 34
44 34 59 0 41 -40 79 -91 87 l-44 7 39 2 c31 1 44 -5 72 -33z m-966 -11 c-10
-12 -45 -15 -199 -13 l-186 3 188 2 c185 3 189 4 195 25 3 13 7 17 10 10 2 -7
-2 -19 -8 -27z m818 5 c-24 -25 -29 -37 -26 -65 2 -18 0 -31 -4 -29 -17 11 -7
64 18 93 14 17 30 31 34 31 5 0 -5 -14 -22 -30z m-1351 -40 c3 -11 2 -12 -4
-3 -7 10 -128 13 -524 16 l-514 2 519 0 c453 0 520 -2 523 -15z m2815 13 c-51
-2 -132 -2 -180 0 -48 1 -6 3 93 3 99 0 138 -2 87 -3z m-1135 -25 c-3 -8 -6
-5 -6 6 -1 11 2 17 5 13 3 -3 4 -12 1 -19z m852 18 c-2 -2 -20 -6 -39 -10 -25
-4 -31 -3 -20 4 14 9 69 15 59 6z m461 -46 c15 -27 10 -25 -25 12 -24 25 -25
29 -8 19 13 -6 27 -20 33 -31z m-4043 -202 c-1 -46 -3 -11 -3 77 0 88 2 125 3
83 2 -42 2 -114 0 -160z m3486 214 c-12 -9 -29 -35 -37 -57 -8 -22 -15 -32
-15 -22 -1 25 25 74 46 86 28 16 30 12 6 -7z m-1235 -72 c0 -9 -3 -7 -8 5 -5
11 -8 29 -8 40 0 16 2 15 8 -5 4 -14 8 -32 8 -40z m469 28 c-3 -7 -5 -2 -5 12
0 14 2 19 5 13 2 -7 2 -19 0 -25z m-1564 -33 c18 -3 61 -6 97 -8 l65 -2 0
-148 1 -147 -3 145 -4 145 -74 0 c-84 0 -149 21 -167 53 -9 18 -6 17 21 -5 17
-15 46 -30 64 -33z m1310 -5 c27 -7 28 -8 7 -9 -23 -1 -90 32 -90 44 0 3 11
-2 25 -11 14 -9 40 -20 58 -24z m-2934 0 c78 0 121 4 129 12 9 9 12 9 12 0 0
-18 -36 -23 -154 -20 -79 2 -110 7 -112 16 -1 7 0 8 3 2 3 -6 52 -10 122 -10z
m3181 12 c0 -5 -14 -30 -31 -55 -28 -43 -113 -107 -125 -95 -2 3 9 11 25 18
35 14 105 87 116 119 6 21 15 28 15 13z m1342 -451 c-10 -13 -29 -31 -42 -40
-17 -10 -12 -2 13 22 l37 38 2 217 3 217 2 -215 c3 -194 2 -217 -15 -239z
m-2494 432 c-21 -2 -55 -2 -75 0 -21 2 -4 4 37 4 41 0 58 -2 38 -4z m2370 -15
c7 -7 11 -34 10 -62 l-1 -51 -6 55 -6 55 -165 5 -165 6 161 2 c114 1 163 -1
172 -10z m-2478 -518 l0 -520 -32 1 c-31 2 -31 2 -5 6 l27 4 0 515 c0 283 2
514 5 514 3 0 5 -234 5 -520z m604 310 c-109 -110 -201 -200 -203 -200 -3 0
35 42 84 93 158 162 304 307 310 307 4 0 -82 -90 -191 -200z m1513 -7 c-2 -37
-3 -9 -3 62 0 72 1 102 3 68 2 -34 2 -93 0 -130z m-1400 -63 l-186 -190 -4
-87 -3 -88 -2 86 -2 86 103 109 c103 110 268 274 276 274 2 0 -80 -85 -182
-190z m248 160 c13 -6 15 -9 5 -9 -8 0 -22 4 -30 9 -18 12 -2 12 25 0z m-3141
-39 c-3 -3 -15 6 -27 18 l-22 24 27 -19 c14 -10 24 -21 22 -23z m561 19 c-10
-11 -22 -20 -28 -20 -5 0 1 9 14 20 31 25 37 25 14 0z m2680 10 c-16 -4 -41
-8 -55 -8 -22 0 -22 1 5 8 17 4 41 8 55 8 22 0 22 -1 -5 -8z m-3418 -32 c-3
-7 -5 -2 -5 12 0 14 2 19 5 13 2 -7 2 -19 0 -25z m566 -5 c-67 -2 -179 -2
-250 0 -70 1 -15 3 122 3 138 0 195 -2 128 -3z m3777 -135 l0 -143 -112 -107
-112 -108 -280 2 -281 3 280 3 280 3 108 102 107 102 0 143 c0 78 2 142 5 142
3 0 5 -64 5 -142z m-4296 64 c40 -45 75 -56 201 -62 l120 -7 -100 -1 c-110 -2
-151 6 -201 40 -30 21 -64 66 -64 85 0 4 6 -1 12 -12 6 -11 20 -31 32 -43z
m1250 -145 l221 -2 -221 -3 -222 -2 -86 86 c-47 48 -86 90 -86 94 0 4 39 -32
87 -81 l86 -89 221 -3z m3553 116 c-3 -10 -5 -2 -5 17 0 19 2 27 5 18 2 -10 2
-26 0 -35z m-3953 -108 c101 -109 131 -127 220 -136 l71 -6 -59 -2 c-85 -2
-130 24 -226 127 -69 75 -85 86 -122 93 l-43 6 39 2 c38 1 45 -4 120 -84z
m3600 45 c10 -13 9 -13 -6 -1 -10 7 -18 21 -17 30 0 13 1 14 6 1 3 -8 11 -22
17 -30z m-3891 23 l-103 -4 -2 -117 -2 -117 -3 109 c-2 61 -1 116 1 123 4 10
31 12 108 11 l103 -2 -102 -3z m-223 -117 l0 -105 -47 -31 c-26 -18 -41 -25
-33 -15 7 9 26 23 42 31 l28 15 0 104 c0 58 2 105 5 105 3 0 5 -47 5 -104z
m4343 77 c-40 -2 -106 -2 -145 0 -40 1 -8 3 72 3 80 0 112 -2 73 -3z m-3116
-82 c70 -56 253 -246 253 -262 0 -8 -8 -2 -18 12 -32 49 -251 260 -284 274
-18 8 -26 14 -16 15 9 0 38 -17 65 -39z m636 -613 c8 -5 7 -8 -5 -8 -17 0 -18
21 -16 328 l3 327 2 -319 c3 -241 6 -322 16 -328z m504 365 c-1 -49 -3 -9 -3
87 0 96 2 136 3 88 2 -49 2 -127 0 -175z m2126 200 c-7 -2 -19 -2 -25 0 -7 3
-2 5 12 5 14 0 19 -2 13 -5z m-341 -12 l-72 -6 -133 -137 c-73 -76 -138 -138
-146 -138 -8 0 1 12 20 28 19 15 86 80 149 145 l115 117 70 -2 70 -1 -73 -6z
m-3029 -28 c-7 -2 -19 -2 -25 0 -7 3 -2 5 12 5 14 0 19 -2 13 -5z m122 -103
c55 -55 97 -100 95 -100 -3 0 -50 45 -105 100 -55 55 -97 100 -95 100 3 0 50
-45 105 -100z m-1050 39 c20 -18 40 -41 46 -53 6 -11 -1 -7 -15 11 -15 17 -39
41 -54 52 -15 11 -24 21 -20 21 4 0 23 -14 43 -31z m-315 -54 c-24 -47 -26
-130 -6 -180 8 -19 13 -35 10 -35 -13 0 -34 75 -34 122 0 45 34 147 46 135 2
-2 -5 -21 -16 -42z m185 -12 c-45 -10 -75 -26 -81 -45 -3 -11 -8 -18 -10 -15
-3 2 -2 12 2 21 8 22 53 45 84 44 20 0 21 -1 5 -5z m74 -56 c-2 -3 -15 10 -28
27 l-24 31 28 -27 c16 -15 27 -29 24 -31z m130 -31 c1 -55 -5 -42 -12 24 -3
34 -2 47 3 35 5 -11 9 -38 9 -59z m2870 70 c-2 -2 -29 -6 -59 -9 -34 -3 -47
-2 -35 3 19 8 103 14 94 6z m-181 -68 c-92 -86 -167 -188 -189 -258 -5 -17 -8
-19 -8 -7 -1 10 9 37 20 60 23 46 146 196 187 227 44 35 38 21 -10 -22z
m-1471 -111 c-2 -23 -3 -1 -3 48 0 50 1 68 3 42 2 -26 2 -67 0 -90z m-1340
101 c-3 -8 -6 -5 -6 6 -1 11 2 17 5 13 3 -3 4 -12 1 -19z m2343 -138 c0 -160
0 -160 -22 -159 -17 1 -19 2 -5 6 15 4 17 20 17 159 0 85 2 154 5 154 3 0 5
-72 5 -160z m-2463 72 c18 -7 22 -11 10 -11 -23 -1 -67 43 -67 66 1 11 6 6 14
-13 8 -19 26 -36 43 -42z m1330 -129 c-2 -38 -3 -7 -3 67 0 74 1 105 3 68 2
-38 2 -98 0 -135z m-1240 141 c-15 -13 -36 -24 -45 -24 -9 1 -2 7 16 15 18 8
35 21 38 30 4 9 9 13 13 10 3 -4 -7 -18 -22 -31z m133 -21 c-11 -17 -11 -17
-6 0 3 10 6 24 7 30 0 9 2 9 5 0 3 -7 0 -20 -6 -30z m3373 30 c-67 -2 -179 -2
-250 0 -70 1 -15 3 122 3 138 0 195 -2 128 -3z m-523 -13 c-25 -6 -55 -30
-109 -87 -41 -43 -68 -68 -60 -56 22 32 116 130 137 142 9 6 28 10 42 10 20
-1 17 -3 -10 -9z m-2897 -80 c-23 -22 -48 -40 -55 -40 -7 0 1 8 17 19 17 10
39 28 49 40 11 11 22 21 25 21 3 0 -13 -18 -36 -40z m-174 -47 l56 -13 -49 5
c-47 5 -127 42 -142 66 -3 6 13 -2 36 -17 23 -15 67 -34 99 -41z m2344 -105
c8 -5 6 -8 -5 -8 -16 0 -18 10 -16 78 l2 77 3 -70 c2 -39 9 -73 16 -77z
m-2246 106 c-3 -3 -12 -4 -19 -1 -8 3 -5 6 6 6 11 1 17 -2 13 -5z m1373 -79
l0 -45 -72 2 -73 2 68 3 67 4 0 39 c0 22 2 40 5 40 3 0 5 -20 5 -45z m1411 4
c-5 -13 -10 -19 -10 -12 -1 15 10 45 15 40 3 -2 0 -15 -5 -28z m-18 -36 c-13
-2 -33 -2 -45 0 -13 2 -3 4 22 4 25 0 35 -2 23 -4z m1886 -183 c203 -27 364
-93 512 -213 60 -49 172 -175 167 -188 -2 -4 -82 -70 -178 -147 l-174 -139
-76 77 c-97 100 -185 145 -313 162 -266 35 -501 -100 -608 -349 -68 -160 -65
-383 8 -527 132 -260 413 -380 690 -295 83 26 203 108 256 174 23 30 44 54 47
54 8 1 345 -279 348 -289 5 -14 -145 -166 -217 -221 -138 -104 -318 -173 -493
-188 -536 -44 -1003 266 -1143 758 -81 283 -24 637 142 888 47 71 156 187 226
241 201 155 532 237 806 202z m-4295 -17 c5 -18 106 -445 106 -450 0 -1 -240
-3 -532 -5 -475 -3 -537 -5 -570 -20 -48 -21 -78 -70 -78 -126 0 -50 12 -77
40 -92 11 -6 208 -62 437 -124 476 -129 514 -144 614 -246 106 -108 159 -235
159 -385 0 -291 -161 -510 -430 -584 -72 -20 -98 -21 -722 -21 -479 0 -648 3
-648 11 0 7 46 108 102 225 l102 213 511 3 c566 3 556 2 591 70 18 35 15 108
-6 133 -17 21 -127 54 -465 141 -159 41 -321 84 -360 95 -163 48 -266 132
-335 271 -162 327 -18 726 307 852 133 52 161 54 685 55 455 1 487 0 492 -16z
m710 0 c7 -25 71 -304 180 -778 52 -225 107 -462 122 -525 l27 -115 42 165
c132 517 230 898 276 1073 l53 197 242 0 242 0 11 -32 c6 -18 44 -163 85 -323
41 -159 113 -434 159 -610 46 -176 95 -364 108 -417 12 -54 25 -98 28 -98 10
0 113 392 253 953 l131 527 263 0 c159 0 264 -4 264 -9 0 -6 -42 -146 -94
-313 -95 -305 -209 -677 -351 -1148 -42 -140 -101 -331 -129 -425 l-52 -170
-277 -3 c-152 -1 -277 0 -277 2 0 13 -290 1028 -353 1235 -10 33 -15 40 -19
25 -59 -205 -348 -1251 -348 -1259 0 -3 -121 -5 -268 -5 l-269 0 -46 173
c-229 850 -497 1871 -497 1890 0 4 110 7 244 7 224 0 245 -1 250 -17z m234
-2230 l-78 -4 0 -147 0 -147 -126 -128 c-70 -71 -128 -126 -130 -125 -2 2 53
60 121 128 l125 125 0 152 0 153 83 -2 82 -2 -77 -3z m550 -185 l-3 -193 -2
188 -3 187 -70 0 -70 0 -3 -287 -2 -288 -3 293 -2 292 80 0 80 0 -2 -192z
m500 -85 l-3 -278 -2 273 -3 272 -60 0 -60 0 -3 -317 -2 -318 -3 323 -2 322
70 0 70 0 -2 -277z m360 220 l-2 -58 -3 53 -4 52 -75 0 -74 0 0 -66 c0 -36 5
-75 11 -87 10 -21 10 -21 -5 -3 -11 14 -16 42 -16 93 l0 73 85 0 85 0 -2 -57z
m-1341 -25 c-2 -13 -4 -5 -4 17 -1 22 1 32 4 23 2 -10 2 -28 0 -40z m2824 -27
c25 -16 56 -44 67 -63 32 -52 27 -58 -7 -8 -42 62 -92 90 -164 90 -97 0 -158
-39 -198 -125 -10 -22 -19 -33 -19 -24 0 32 64 112 109 136 66 35 153 32 212
-6z m-4202 5 c-2 -2 -33 -6 -69 -9 -38 -3 -57 -1 -45 3 19 8 123 14 114 6z
m73 -29 c37 -22 88 -81 88 -101 0 -6 -6 -2 -12 9 -21 38 -63 78 -103 96 -22
10 -33 19 -25 19 8 0 32 -10 52 -23z m-242 -10 c0 -2 -10 -12 -22 -23 l-23
-19 19 23 c18 21 26 27 26 19z m3057 -187 c77 -96 158 -195 180 -220 l41 -45
188 -5 c226 -7 224 -6 341 -128 l81 -85 49 6 c33 4 40 3 23 -3 -58 -19 -71
-13 -155 74 -118 120 -114 119 -339 126 l-188 5 -50 55 c-78 84 -373 457 -321
405 6 -5 73 -89 150 -185z m-3108 118 c-6 -12 -15 -33 -20 -47 -5 -17 -8 -20
-8 -8 -1 18 25 77 35 77 2 0 -1 -10 -7 -22z m3046 -253 c187 -224 226 -260
289 -276 25 -5 26 -7 8 -8 -33 -1 -92 32 -133 76 -19 21 -78 90 -129 153 -52
63 -137 165 -189 225 -52 61 -82 99 -67 85 16 -14 115 -128 221 -255z m1326
236 c86 -86 -29 -217 -118 -135 l-28 26 29 -21 c61 -45 136 -12 136 60 0 46
-25 78 -70 89 -33 7 -33 8 -7 9 19 1 38 -9 58 -28z m-4132 -27 c17 -14 31 -30
31 -35 0 -6 -10 2 -23 16 -12 15 -38 30 -57 35 -31 7 -32 8 -8 9 15 1 40 -10
57 -25z m-100 3 c-27 -20 -41 -58 -36 -91 5 -27 5 -28 -5 -9 -6 12 -8 33 -4
48 6 25 39 65 54 65 4 0 0 -6 -9 -13z m3958 -59 c-2 -13 -4 -5 -4 17 -1 22 1
32 4 23 2 -10 2 -28 0 -40z m430 -15 c-2 -16 -4 -5 -4 22 0 28 2 40 4 28 2
-13 2 -35 0 -50z m-4130 25 c-3 -7 -5 -2 -5 12 0 14 2 19 5 13 2 -7 2 -19 0
-25z m-416 -81 c6 -21 26 -57 46 -80 l36 -42 -41 41 c-41 43 -63 96 -60 149
l1 30 4 -30 c2 -16 9 -47 14 -68z m296 41 c-3 -7 -5 -2 -5 12 0 14 2 19 5 13
2 -7 2 -19 0 -25z m1300 -21 c-8 -12 -177 -187 -376 -389 -326 -330 -409 -408
-437 -408 -5 0 6 9 25 21 54 33 780 768 788 798 3 14 8 20 11 13 2 -7 -3 -23
-11 -35z m2542 -22 c0 -5 -4 -3 -9 5 -5 8 -9 22 -9 30 0 16 17 -16 18 -35z
m-3722 3 c-3 -8 -6 -5 -6 6 -1 11 2 17 5 13 3 -3 4 -12 1 -19z m4110 -15 c-19
-36 -53 -66 -97 -87 -34 -16 -29 -12 34 29 17 11 40 37 51 57 11 20 21 35 23
33 2 -2 -3 -16 -11 -32z m-2430 -15 c-3 -8 -6 -5 -6 6 -1 11 2 17 5 13 3 -3 4
-12 1 -19z m-1854 0 c-2 -5 -19 -8 -38 -8 -19 0 -36 3 -38 8 -3 4 14 7 38 7
24 0 41 -3 38 -7z m145 -35 c-14 -21 -44 -48 -67 -61 -54 -31 -53 -22 3 13 25
15 53 43 62 61 10 18 20 31 23 29 2 -3 -7 -22 -21 -42z m3838 -29 l45 -26 -3
-147 -3 -146 -95 -1 -95 0 93 3 92 4 -1 142 0 142 -46 30 c-26 17 -53 41 -61
55 -13 22 -12 22 8 -3 12 -15 42 -39 66 -53z m-4096 -50 c0 -2 -9 0 -20 6 -11
6 -20 13 -20 16 0 2 9 0 20 -6 11 -6 20 -13 20 -16z m847 -274 l-232 -230
-126 0 -127 0 -26 35 c-35 46 -59 57 -131 64 -58 6 -60 7 -61 36 -1 28 -1 28
3 3 4 -26 8 -28 49 -28 60 0 106 -21 140 -64 l29 -36 125 0 125 0 225 225
c124 124 228 225 232 225 4 0 -98 -103 -225 -230z m1630 178 c-3 -8 -6 -5 -6
6 -1 11 2 17 5 13 3 -3 4 -12 1 -19z m212 -233 c78 -82 141 -153 141 -157 0
-4 -24 19 -52 50 -29 31 -96 102 -149 157 -54 55 -109 116 -125 135 l-27 35
35 -35 c20 -19 100 -102 177 -185z m-248 69 c44 -52 78 -94 75 -94 -12 0 -176
203 -175 218 0 12 3 10 10 -7 5 -13 46 -65 90 -117z m1047 29 c-43 -2 -113 -2
-155 0 -43 1 -8 3 77 3 85 0 120 -2 78 -3z m165 -78 c75 -78 91 -95 86 -95 -2
0 -43 39 -89 87 -47 48 -76 80 -65 72 10 -8 41 -36 68 -64z m-1844 38 c-29
-37 -305 -329 -329 -348 -14 -11 49 58 139 153 91 95 171 181 178 192 8 11 17
20 20 20 3 0 -1 -8 -8 -17z m148 -20 c-3 -10 -5 -4 -5 12 0 17 2 24 5 18 2 -7
2 -21 0 -30z m2476 20 c-29 -2 -77 -2 -105 0 -29 2 -6 3 52 3 58 0 81 -1 53
-3z m110 -14 c53 -28 108 -97 107 -136 -1 -10 -7 -1 -15 20 -17 50 -50 85
-100 108 -22 10 -34 19 -27 19 7 0 23 -5 35 -11z m-2600 -43 c-10 -19 -396
-421 -392 -408 2 5 87 96 189 202 102 106 189 198 193 206 4 8 10 14 13 14 3
0 1 -6 -3 -14z m681 -145 c85 -98 98 -126 76 -161 -7 -12 -44 -16 -191 -20
l-182 -5 -168 -174 c-93 -96 -171 -172 -174 -170 -2 3 74 83 170 179 l175 175
172 3 c101 2 178 8 185 14 15 12 18 64 5 72 -13 8 -164 186 -158 186 3 0 43
-44 90 -99z m-2656 72 c-21 -2 -55 -2 -75 0 -21 2 -4 4 37 4 41 0 58 -2 38 -4z
m-143 -18 c-17 -9 -38 -28 -48 -43 -9 -15 -17 -22 -17 -16 0 19 57 74 77 74
12 0 9 -5 -12 -15z m4114 -6 c-15 -6 -34 -24 -43 -42 -8 -18 -16 -25 -16 -16
0 23 45 69 67 68 12 0 10 -4 -8 -10z m556 -14 c14 -13 25 -30 25 -37 -1 -7 -7
-2 -15 12 -7 14 -26 30 -42 37 -19 8 -22 12 -10 13 10 0 29 -11 42 -25z m155
-586 l-11 -24 6 25 c2 14 6 151 7 305 l3 280 2 -281 c2 -180 0 -290 -7 -305z
m-4893 509 c-3 -8 -6 -5 -6 6 -1 11 2 17 5 13 3 -3 4 -12 1 -19z m3080 -10
c-3 -8 -6 -5 -6 6 -1 11 2 17 5 13 3 -3 4 -12 1 -19z m1040 -310 c-1 -62 -3
-14 -3 107 0 121 2 172 3 113 2 -59 2 -158 0 -220z m-3812 295 c-126 -3 -152
-6 -162 -20 -7 -9 -13 -12 -13 -7 0 29 27 34 175 32 l150 -2 -150 -3z m2782
-65 c-3 -7 -5 -2 -5 12 0 14 2 19 5 13 2 -7 2 -19 0 -25z m1471 10 c7 -7 11
-23 11 -37 -1 -24 -2 -24 -8 4 l-6 30 -125 0 -125 0 -5 -125 -6 -125 -2 121
c-1 82 2 124 10 132 8 8 51 12 128 12 77 0 120 -4 128 -12z m-3031 -14 c-3 -3
-12 -4 -19 -1 -8 3 -5 6 6 6 11 1 17 -2 13 -5z m123 -4 c11 -8 7 -9 -15 -4
-37 8 -45 14 -19 14 10 0 26 -5 34 -10z m-1163 -167 c-2 -32 -3 -6 -3 57 0 63
1 89 3 58 2 -32 2 -84 0 -115z m961 137 c-49 -33 -71 -60 -94 -118 -12 -32
-13 -33 -8 -7 3 17 15 45 26 63 21 34 91 92 111 92 6 0 -10 -14 -35 -30z
m2527 10 c-4 -6 -123 -9 -333 -8 l-327 3 330 5 c182 3 331 6 333 8 2 1 0 -2
-3 -8z m-3135 -7 c-108 -7 -228 -7 -223 0 2 4 64 6 136 5 73 -1 112 -3 87 -5z
m2338 -10 c-16 -2 -40 -2 -55 0 -16 2 -3 4 27 4 30 0 43 -2 28 -4z m-2561
-225 c-2 -29 -3 -8 -3 47 0 55 1 79 3 53 2 -26 2 -71 0 -100z m981 125 c-10
-2 -28 -2 -40 0 -13 2 -5 4 17 4 22 1 32 -1 23 -4z m-90 -32 c-13 -15 -25 -27
-27 -25 -4 4 39 54 47 54 2 0 -7 -13 -20 -29z m299 7 c-3 -8 -6 -5 -6 6 -1 11
2 17 5 13 3 -3 4 -12 1 -19z m-138 -22 c-3 -3 -11 5 -18 17 -13 21 -12 21 5 5
10 -10 16 -20 13 -22z m2154 27 c-83 -2 -223 -2 -310 0 -87 1 -18 3 152 3 171
0 242 -2 158 -3z m-730 -10 c-84 -2 -222 -2 -305 0 -84 1 -16 3 152 3 168 0
236 -2 153 -3z m-553 -99 c-52 -52 -113 -109 -135 -126 -22 -17 18 26 90 96
71 69 132 126 135 126 2 0 -38 -43 -90 -96z m-730 -47 c-19 -64 -111 -147
-162 -147 -7 0 10 11 37 24 86 40 124 100 127 203 l2 58 4 -50 c2 -27 -2 -67
-8 -88z m-473 81 c-3 -7 -5 -2 -5 12 0 14 2 19 5 13 2 -7 2 -19 0 -25z m340
-15 c-3 -10 -5 -2 -5 17 0 19 2 27 5 18 2 -10 2 -26 0 -35z m2310 -120 c-2
-32 -3 -6 -3 57 0 63 1 89 3 58 2 -32 2 -84 0 -115z m579 132 c-6 -24 -10 -25
-69 -23 l-62 1 60 6 c53 5 60 9 63 29 2 13 6 21 9 18 3 -3 3 -17 -1 -31z
m-4264 -27 l153 -2 -149 -3 c-152 -4 -177 1 -175 36 0 11 3 9 9 -6 9 -22 14
-23 162 -25z m169 9 c-10 -9 -11 -8 -5 6 3 10 9 15 12 12 3 -3 0 -11 -7 -18z
m3854 -5 c-3 -3 -11 0 -18 7 -9 10 -8 11 6 5 10 -3 15 -9 12 -12z m-2951 -81
c23 -44 61 -79 111 -102 22 -10 33 -19 24 -19 -8 0 -36 13 -62 29 -48 31 -108
118 -106 156 1 16 2 15 8 -5 5 -14 16 -40 25 -59z m268 39 c-33 -30 -73 -38
-101 -21 -10 6 -1 8 25 4 34 -4 45 -1 70 21 16 14 31 25 34 25 3 0 -10 -13
-28 -29z m-131 3 c13 -16 12 -17 -3 -4 -10 7 -18 15 -18 17 0 8 8 3 21 -13z
m-1452 -80 c39 -26 33 -31 -9 -7 -28 17 -60 62 -60 86 0 7 8 -3 18 -22 9 -19
32 -45 51 -57z m537 21 c-32 -48 -66 -54 -293 -52 l-208 2 220 6 c191 4 224 7
247 23 15 11 30 28 34 39 3 11 8 17 11 14 3 -3 -2 -17 -11 -32z m4149 -31 c-9
-15 -13 -19 -10 -8 4 11 10 29 13 40 3 11 7 14 9 8 3 -7 -3 -24 -12 -40z
m-573 -36 c8 -3 9 -6 1 -6 -13 -1 -53 46 -53 63 0 6 9 -3 19 -20 11 -18 25
-34 33 -37z m-1952 20 c0 -2 -10 -12 -21 -23 -22 -19 -22 -19 -8 4 12 19 29
30 29 19z m2495 -17 c-3 -5 -12 -10 -18 -10 -7 0 -6 4 3 10 19 12 23 12 15 0z
m-2275 -77 c0 -2 -18 10 -40 27 -22 17 -40 34 -40 37 0 2 18 -10 40 -27 22
-17 40 -34 40 -37z m1639 -40 c24 -13 38 -23 30 -23 -41 0 -119 79 -119 120 0
8 10 -6 23 -30 15 -31 35 -51 66 -67z m484 100 c-67 -2 -179 -2 -250 0 -70 1
-15 3 122 3 138 0 195 -2 128 -3z m-2413 -23 c-14 -11 -28 -20 -32 -20 -4 0
-19 -17 -33 -37 -14 -21 -25 -34 -25 -30 0 17 36 60 69 83 43 29 56 31 21 4z
m2711 -19 c-21 -30 -72 -71 -87 -71 -4 0 11 13 32 28 21 16 45 41 53 55 8 15
16 25 19 23 2 -3 -5 -18 -17 -35z m-3253 12 c-16 -2 -40 -2 -55 0 -16 2 -3 4
27 4 30 0 43 -2 28 -4z m723 -102 c39 -40 40 -97 3 -138 l-26 -28 21 29 c30
41 28 100 -4 131 -44 45 -120 26 -144 -35 -7 -19 -10 -20 -10 -7 -1 33 53 77
94 77 27 0 44 -8 66 -29z m2422 12 c-7 -2 -19 -2 -25 0 -7 3 -2 5 12 5 14 0
19 -2 13 -5z m-2702 -58 c-6 -35 -9 -41 -10 -20 -1 30 9 78 15 73 2 -2 -1 -26
-5 -53z m426 33 c-3 -8 -6 -5 -6 6 -1 11 2 17 5 13 3 -3 4 -12 1 -19z m2091
15 c-82 -2 -214 -2 -295 0 -82 1 -15 3 147 3 162 0 229 -2 148 -3z m-2081
-100 c-2 -16 -4 -5 -4 22 0 28 2 40 4 28 2 -13 2 -35 0 -50z m-310 -5 c-3 -7
-5 -2 -5 12 0 14 2 19 5 13 2 -7 2 -19 0 -25z m-120 -30 c-3 -8 -6 -5 -6 6 -1
11 2 17 5 13 3 -3 4 -12 1 -19z m148 -8 c10 -11 16 -20 13 -20 -3 0 -13 9 -23
20 -10 11 -16 20 -13 20 3 0 13 -9 23 -20z m248 -58 c-27 -44 -83 -92 -107
-92 -6 1 6 10 27 21 37 20 96 97 98 128 0 12 2 12 6 3 3 -7 -8 -34 -24 -60z
m-165 31 c-10 -2 -28 -2 -40 0 -13 2 -5 4 17 4 22 1 32 -1 23 -4z m-168 -68
l35 -40 -33 30 c-19 17 -38 39 -44 50 -6 11 -7 16 -2 10 5 -5 25 -28 44 -50z
m70 -45 c8 -5 11 -10 5 -10 -5 0 -17 5 -25 10 -8 5 -10 10 -5 10 6 0 17 -5 25
-10z m113 -17 c-18 -2 -48 -2 -65 0 -18 2 -4 4 32 4 36 0 50 -2 33 -4z"/>
</g>
</svg>
